{"title":"Down - IV - Part II [24-bit 44.1kHz flac] MC Lurken","uid":11746716,"size":457447149,"categoryP":"audio","categoryS":"flac","magnet":"?xt=urn:btih:767a560b0953f5323ea2d6c3ef0f45ee820eb1fb&amp;dn=Down+-+IV+-+Part+II+%5B24-bit+44.1kHz+flac%5D+MC+Lurken&amp;tr=udp%3A%2F%2Ftracker.openbittorrent.com%3A80&amp;tr=udp%3A%2F%2Fopen.demonii.com%3A1337&amp;tr=udp%3A%2F%2Ftracker.coppersurfer.tk%3A6969&amp;tr=udp%3A%2F%2Fexodus.desync.com%3A6969","seeders":1,"leechers":1,"uploader":"beavis39","files":10,"time":1426064533,"description":"Down - IV - Part II [24-bit 44.1kHz flac] MC Lurken\n\n\n\n1 - Steeple\n2 - We Knew Him Well...\n3 - Hogshead/Dogshead\n4 - Conjure\n5 - Sufferer's Years\n6 - Bacchanalia\n\n\n\nfoobar2000 1.3.7 / Dynamic Range Meter 1.1.1\nlog date: 2015-03-11 02:22:11\n\n--------------------------------------------------------------------------------\nAnalyzed: Down / IV - Part II\n--------------------------------------------------------------------------------\n\nDR         Peak         RMS     Duration Track\n--------------------------------------------------------------------------------\nDR6        0.00 dB    -6.90 dB      5:45 01-Steeple\nDR5        0.00 dB    -6.68 dB      4:04 02-We Knew Him Well...\nDR5        0.00 dB    -6.45 dB      3:52 03-Hogshead/Dogshead\nDR6        0.00 dB    -6.73 dB      8:31 04-Conjure\nDR5        0.00 dB    -6.04 dB      5:37 05-Sufferer's Years\nDR6        0.00 dB    -7.69 dB      8:55 06-Bacchanalia\n--------------------------------------------------------------------------------\n\nNumber of tracks:  6\nOfficial DR value: DR6\n\nSamplerate:        44100 Hz\nChannels:          2\nBits per sample:   24\nBitrate:           1603 kbps\nCodec:             FLAC","torrent":{"xt":"urn:btih:767a560b0953f5323ea2d6c3ef0f45ee820eb1fb","amp;dn":"Down+-+IV+-+Part+II+%5B24-bit+44.1kHz+flac%5D+MC+Lurken","amp;tr":["udp%3A%2F%2Ftracker.openbittorrent.com%3A80","udp%3A%2F%2Fopen.demonii.com%3A1337","udp%3A%2F%2Ftracker.coppersurfer.tk%3A6969","udp%3A%2F%2Fexodus.desync.com%3A6969"],"infoHash":"767a560b0953f5323ea2d6c3ef0f45ee820eb1fb","infoHashBuffer":{"type":"Buffer","data":[118,122,86,11,9,83,245,50,62,162,214,195,239,15,69,238,130,14,177,251]},"announce":[],"urlList":[]}}